<svg width="50" height="50" viewBox="0 0 50 50" fill="none" xmlns="http://www.w3.org/2000/svg">
<path d="M25 3.125C20.6735 3.125 16.4442 4.40795 12.8469 6.8116C9.24959 9.21526 6.44581 12.6317 4.79015 16.6288C3.13448 20.6259 2.70128 25.0243 3.54533 29.2676C4.38938 33.5109 6.47278 37.4087 9.53205 40.468C12.5913 43.5272 16.4891 45.6106 20.7324 46.4547C24.9757 47.2987 29.3741 46.8655 33.3712 45.2099C37.3683 43.5542 40.7848 40.7504 43.1884 37.1531C45.5921 33.5558 46.875 29.3265 46.875 25C46.875 19.1984 44.5703 13.6344 40.468 9.53204C36.3656 5.42968 30.8016 3.125 25 3.125V3.125ZM43.1563 20.3906L26.5625 23.1562V6.32813C30.4471 6.65619 34.1328 8.18692 37.1069 10.7073C40.081 13.2277 42.1955 16.6125 43.1563 20.3906V20.3906ZM25 43.75C20.1872 43.7137 15.5727 41.828 12.1118 38.4834C8.65087 35.1388 6.60862 30.5915 6.40784 25.7827C6.20706 20.974 7.86312 16.2722 11.0332 12.6507C14.2032 9.02929 18.6445 6.76553 23.4375 6.32813V25C23.4375 25.4144 23.6021 25.8118 23.8952 26.1049C24.1882 26.3979 24.5856 26.5625 25 26.5625H25.25L43.75 23.4375C43.75 23.9531 43.8281 24.4531 43.8281 25C43.8282 27.4689 43.3406 29.9134 42.3934 32.1934C41.4463 34.4734 40.0582 36.5438 38.3088 38.2859C36.5594 40.0281 34.4832 41.4076 32.1993 42.3452C29.9154 43.2829 27.4689 43.7603 25 43.75V43.75Z" fill="#F05A23"/>
</svg>
