<svg width="50" height="50" viewBox="0 0 50 50" fill="none" xmlns="http://www.w3.org/2000/svg">
<path d="M43.056 12.3209H35.2671V8.69452C35.2671 6.58897 33.5546 4.87646 31.449 4.87646H18.5532C16.4477 4.87646 14.7352 6.58897 14.7352 8.69452V12.3209H6.94488C5.0296 12.3209 3.47266 13.8779 3.47266 15.7931V24.5779C3.47266 26.2279 4.57405 27.9779 6.05043 28.7251V41.6515C6.05043 43.5654 7.60877 45.1237 9.52266 45.1237H40.4768C42.3907 45.1237 43.949 43.5654 43.949 41.6515V28.7251C45.4254 27.9779 46.5268 26.2265 46.5268 24.5779V15.7931C46.5282 13.8779 44.9713 12.3209 43.056 12.3209ZM17.5115 8.69452C17.5115 8.12091 17.9796 7.65424 18.5518 7.65424H31.4477C32.0213 7.65424 32.4879 8.12091 32.4879 8.69452V12.3209H17.5115V8.69452ZM6.25043 15.7931C6.25043 15.4167 6.56849 15.0987 6.94488 15.0987H43.056C43.4324 15.0987 43.7504 15.4167 43.7504 15.7931V24.5779C43.7504 25.1806 43.2129 26.0181 42.6657 26.2709C40.3018 27.357 35.1157 29.5667 30.7268 30.9695V29.7459C30.7268 28.3556 29.5963 27.2265 28.2074 27.2265H21.7949C20.406 27.2265 19.2754 28.3556 19.2754 29.7459V30.9751C14.8893 29.5723 9.69904 27.3584 7.33655 26.2709C6.78793 26.0181 6.25043 25.1806 6.25043 24.5779V15.7931ZM27.949 30.0042V34.1751H22.0518V30.0042H27.949ZM40.4782 42.3459H9.52266C9.14627 42.3459 8.82821 42.0279 8.82821 41.6515V29.964C11.456 31.0904 15.5865 32.7667 19.274 33.8737V34.4306C19.274 35.8195 20.4046 36.9501 21.7935 36.9501H28.206C29.5949 36.9501 30.7254 35.8195 30.7254 34.4306V33.8765C34.4115 32.7681 38.5449 31.089 41.1713 29.9654V41.6515C41.1727 42.0279 40.8532 42.3459 40.4782 42.3459Z" fill="#F05A23"/>
</svg>
