<svg width="50" height="50" viewBox="0 0 50 50" fill="none" xmlns="http://www.w3.org/2000/svg">
<path d="M39.6454 37.5558C38.2843 37.5558 36.9232 37.4447 35.5621 37.2225C35.076 37.1113 34.6871 36.5558 34.6871 36.0002C34.7843 35.4447 35.2704 34.8891 35.7565 35.0003C38.9648 35.4447 42.1731 35.3336 45.3814 34.6669C46.5481 34.4447 47.4231 33.1114 47.2287 31.6669L46.8398 28.8892C46.7425 28.2225 46.5481 27.667 46.1592 27.1114C45.7703 26.667 45.2842 26.2225 44.7981 26.0003C41.5898 24.7781 37.9926 24.7781 34.6871 26.0003C34.3954 26.1114 34.1038 26.3337 33.8121 26.5559C33.4232 26.8892 32.7427 26.8892 32.451 26.3337C32.1593 25.8892 32.1593 25.1114 32.6454 24.7781C33.1316 24.4448 33.6177 24.1115 34.1038 23.8892C37.7982 22.4448 41.7843 22.4448 45.4787 23.8892C46.3537 24.2226 47.1314 24.8892 47.7148 25.667C48.2981 26.4448 48.687 27.4448 48.8814 28.4447L49.2703 31.2225C49.6592 33.778 48.1036 36.3336 45.8676 36.778C43.7287 37.3336 41.687 37.5558 39.6454 37.5558Z" fill="#F05A23"/>
<path d="M39.6457 25.2223C36.5346 25.2223 34.0068 22.3334 34.0068 18.7779C34.0068 15.2224 36.5346 12.3335 39.6457 12.3335C42.7568 12.3335 45.2845 15.2224 45.2845 18.7779C45.2845 22.3334 42.7568 25.2223 39.6457 25.2223ZM39.6457 14.6668C37.604 14.6668 35.9513 16.5557 35.9513 18.889C35.9513 21.2223 37.604 23.1112 39.6457 23.1112C41.6873 23.1112 43.3401 21.2223 43.3401 18.889C43.3401 16.5557 41.6873 14.6668 39.6457 14.6668Z" fill="#F05A23"/>
<path d="M10.0907 37.5553C8.04907 37.5553 6.00742 37.3331 4.063 36.8886C1.8269 36.4442 0.271363 33.8886 0.660249 31.3331L1.04913 28.5553C1.24358 27.5554 1.63246 26.5554 2.21579 25.7776C2.79912 24.9998 3.57689 24.3332 4.45188 23.9998C8.14629 22.5554 12.1324 22.5554 15.8268 23.9998C16.3129 24.222 16.8962 24.5554 17.2851 24.8887C17.674 25.222 17.7712 25.9998 17.4795 26.4443C17.1879 26.8887 16.5073 26.9998 16.1184 26.6665C15.8268 26.4443 15.5351 26.222 15.2434 26.1109C11.9379 24.8887 8.43796 24.8887 5.13243 26.1109C4.5491 26.3331 4.063 26.6665 3.77133 27.222C3.38245 27.6665 3.188 28.3331 3.09078 28.9998L2.50745 31.7775C2.31301 33.222 3.09078 34.5553 4.35466 34.7775C7.56296 35.4442 10.7713 35.5553 13.9796 35.1108C14.5629 34.9997 14.9518 35.4442 15.049 36.1108C15.1462 36.6664 14.7573 37.2219 14.174 37.3331C12.8129 37.4442 11.4518 37.5553 10.0907 37.5553Z" fill="#F05A23"/>
<path d="M10.089 25.2223C6.97795 25.2223 4.4502 22.3334 4.4502 18.7779C4.4502 15.2224 6.97795 12.3335 10.089 12.3335C13.2001 12.3335 15.7279 15.2224 15.7279 18.7779C15.6306 22.3334 13.2001 25.2223 10.089 25.2223ZM10.089 14.6668C8.04738 14.6668 6.39462 16.5557 6.39462 18.889C6.39462 21.2223 8.04738 23.1112 10.089 23.1112C12.1307 23.1112 13.7834 21.2223 13.7834 18.889C13.6862 16.5557 12.1307 14.6668 10.089 14.6668Z" fill="#F05A23"/>
<path d="M24.8674 40.9996C22.2424 40.9996 19.6175 40.7774 16.9925 40.2219C14.2703 39.6663 12.3259 36.5552 12.812 33.4441L13.2981 29.8886C13.687 27.222 15.3397 25.1109 17.4786 24.222C22.1452 22.4442 27.3952 22.4442 32.0618 24.222C33.1312 24.6664 34.1034 25.4442 34.8812 26.3331C35.659 27.3331 36.1451 28.5553 36.3395 29.8886L36.8256 33.4441C37.3117 36.6663 35.3673 39.6663 32.6451 40.2219C30.1174 40.7774 27.4924 40.9996 24.8674 40.9996ZM24.8674 24.9998C22.6313 24.9998 20.298 25.4442 18.1591 26.222C16.6036 26.7775 15.5342 28.3331 15.2425 30.1108L14.7564 33.6664C14.4647 35.6663 15.6314 37.5552 17.3814 37.9997C22.3397 38.9996 27.3952 38.9996 32.4507 37.9997C34.2007 37.6663 35.3673 35.6663 35.0757 33.6664L34.5896 30.1108C34.4923 29.222 34.1034 28.3331 33.6173 27.6664C33.1312 26.9998 32.4507 26.4442 31.6729 26.222C29.4368 25.4442 27.1035 24.9998 24.8674 24.9998Z" fill="#F05A23"/>
<path d="M24.8681 24.9999C20.9792 24.9999 17.8682 21.4443 17.8682 16.9999C17.8682 12.5555 20.9792 9 24.8681 9C28.757 9 31.868 12.5555 31.868 16.9999C31.868 21.4443 28.757 24.9999 24.8681 24.9999ZM24.8681 11.2222C22.0487 11.2222 19.8126 13.7777 19.8126 16.9999C19.8126 20.2221 22.0487 22.7777 24.8681 22.7777C27.6875 22.7777 29.9236 20.2221 29.9236 16.9999C29.9236 13.7777 27.6875 11.2222 24.8681 11.2222Z" fill="#F05A23"/>
</svg>
