<svg width="50" height="50" viewBox="0 0 50 50" fill="none" xmlns="http://www.w3.org/2000/svg">
<path fill-rule="evenodd" clip-rule="evenodd" d="M17.9821 30.9346V10.7864H19.2979V31.0416C19.2979 31.1125 19.2864 31.1829 19.264 31.2501L14.5933 45.2326L30.9347 30.6639L31.8103 31.6461L13.6241 47.8595C13.4015 48.0579 13.0733 48.0818 12.8243 47.9178C12.5753 47.7538 12.4678 47.4428 12.5623 47.16L17.9821 30.9346Z" fill="#F05A23"/>
<path fill-rule="evenodd" clip-rule="evenodd" d="M30.7023 31.0416V10.7864H32.0181V30.9347L37.4366 47.16C37.5311 47.443 37.4233 47.7541 37.1741 47.918C36.9249 48.082 36.5965 48.0577 36.3741 47.8589L18.2354 31.6455L19.1122 30.6645L35.4037 45.2267L30.7362 31.25C30.7137 31.1828 30.7023 31.1124 30.7023 31.0416Z" fill="#F05A23"/>
<path fill-rule="evenodd" clip-rule="evenodd" d="M18.4172 23.9851C18.4971 23.9519 18.5828 23.9348 18.6693 23.9348H31.33C31.4165 23.9348 31.5022 23.9519 31.5822 23.9851L45.1788 29.6279C45.4687 29.7482 45.6332 30.0564 45.5719 30.3641C45.5105 30.6719 45.2404 30.8935 44.9267 30.8935H5.07202C4.75824 30.8935 4.48813 30.6719 4.42681 30.3641C4.36549 30.0564 4.53003 29.7482 4.81985 29.6279L18.4172 23.9851ZM18.8004 25.2506L8.3737 29.5777H41.6251L31.1989 25.2506H18.8004Z" fill="#F05A23"/>
<path fill-rule="evenodd" clip-rule="evenodd" d="M18.3831 10.1672C18.471 10.1256 18.5671 10.104 18.6644 10.104H31.3336C31.4309 10.104 31.527 10.1256 31.6149 10.1672L42.107 15.1298C42.3853 15.2614 42.5351 15.5684 42.4677 15.8687C42.4002 16.169 42.1336 16.3824 41.8257 16.3824H8.17358C7.86579 16.3824 7.59913 16.169 7.53168 15.8687C7.46423 15.5684 7.61402 15.2614 7.89226 15.1298L18.3831 10.1672ZM18.8121 11.4198L11.1029 15.0666H38.8961L31.1859 11.4198H18.8121Z" fill="#F05A23"/>
<path fill-rule="evenodd" clip-rule="evenodd" d="M30.9527 25.1318L18.292 16.277L19.0461 15.1987L31.7068 24.0536L30.9527 25.1318Z" fill="#F05A23"/>
<path fill-rule="evenodd" clip-rule="evenodd" d="M18.292 24.0536L30.9527 15.1987L31.7068 16.277L19.0461 25.1318L18.292 24.0536Z" fill="#F05A23"/>
<path fill-rule="evenodd" clip-rule="evenodd" d="M22.3644 2.32282C22.4786 2.10794 22.702 1.97363 22.9454 1.97363H27.0524C27.2958 1.97363 27.5192 2.10794 27.6334 2.32282L31.9666 10.4776L30.8046 11.0951L26.657 3.28942H23.3408L19.1932 11.0951L18.0312 10.4776L22.3644 2.32282Z" fill="#F05A23"/>
<path fill-rule="evenodd" clip-rule="evenodd" d="M9.34961 21.1104V18.4561H10.6654V21.1104H9.34961Z" fill="#F05A23"/>
<path fill-rule="evenodd" clip-rule="evenodd" d="M10.0075 19.1726C10.3708 19.1726 10.6654 19.4672 10.6654 19.8305V21.1105C10.6654 21.4739 10.3708 21.7684 10.0075 21.7684C9.64416 21.7684 9.34961 21.4739 9.34961 21.1105V19.8305C9.34961 19.4672 9.64416 19.1726 10.0075 19.1726Z" fill="#F05A23"/>
<path fill-rule="evenodd" clip-rule="evenodd" d="M39.334 21.1104V18.4561H40.6498V21.1104H39.334Z" fill="#F05A23"/>
<path fill-rule="evenodd" clip-rule="evenodd" d="M39.9929 19.1726C40.3562 19.1726 40.6508 19.4672 40.6508 19.8305V21.1105C40.6508 21.4739 40.3562 21.7684 39.9929 21.7684C39.6295 21.7684 39.335 21.4739 39.335 21.1105V19.8305C39.335 19.4672 39.6295 19.1726 39.9929 19.1726Z" fill="#F05A23"/>
<path fill-rule="evenodd" clip-rule="evenodd" d="M42.1484 35.612V32.957H43.4642V35.612H42.1484Z" fill="#F05A23"/>
<path fill-rule="evenodd" clip-rule="evenodd" d="M42.8063 33.6729C43.1697 33.6729 43.4642 33.9674 43.4642 34.3307V35.6121C43.4642 35.9754 43.1697 36.27 42.8063 36.27C42.443 36.27 42.1484 35.9754 42.1484 35.6121V34.3307C42.1484 33.9674 42.443 33.6729 42.8063 33.6729Z" fill="#F05A23"/>
<path fill-rule="evenodd" clip-rule="evenodd" d="M6.53418 35.612V32.957H7.84997V35.612H6.53418Z" fill="#F05A23"/>
<path fill-rule="evenodd" clip-rule="evenodd" d="M7.19207 33.6729C7.55542 33.6729 7.84997 33.9674 7.84997 34.3307V35.6121C7.84997 35.9755 7.55542 36.27 7.19207 36.27C6.82873 36.27 6.53418 35.9755 6.53418 35.6121V34.3307C6.53418 33.9674 6.82873 33.6729 7.19207 33.6729Z" fill="#F05A23"/>
</svg>
