<svg width="50" height="50" viewBox="0 0 50 50" fill="none" xmlns="http://www.w3.org/2000/svg">
<path d="M45.3799 43.2499H39.4999V18.9399H43.6499C44.114 18.9399 44.5591 18.7556 44.8873 18.4274C45.2155 18.0992 45.3999 17.6541 45.3999 17.1899V13.4399C45.3999 12.9758 45.2155 12.5307 44.8873 12.2025C44.5591 11.8743 44.114 11.6899 43.6499 11.6899H39.4999V8.43994C39.4999 7.97581 39.3155 7.53069 38.9873 7.2025C38.6591 6.87432 38.214 6.68994 37.7499 6.68994H33.9999C33.5357 6.68994 33.0906 6.87432 32.7624 7.2025C32.4343 7.53069 32.2499 7.97581 32.2499 8.43994V11.6899H5.86988C5.65626 11.7057 5.44787 11.7636 5.25669 11.8602C5.06552 11.9569 4.89533 12.0903 4.75593 12.253C4.61652 12.4156 4.51065 12.6042 4.4444 12.8079C4.37815 13.0116 4.35282 13.2264 4.36988 13.4399V17.1899C4.35282 17.4035 4.37815 17.6183 4.4444 17.822C4.51065 18.0257 4.61652 18.2143 4.75593 18.3769C4.89533 18.5395 5.06552 18.673 5.25669 18.7696C5.44787 18.8663 5.65626 18.9241 5.86988 18.9399H8.81488C8.8264 18.9691 8.83976 18.9975 8.85488 19.0249L10.8549 22.3699C10.9216 22.4814 11.0161 22.5737 11.1291 22.6377C11.2422 22.7017 11.37 22.7352 11.4999 22.7349H12.6699V26.3899C12.6699 26.3899 12.6699 26.4299 12.6699 26.4499C12.6699 26.4699 12.6699 26.4899 12.6699 26.5099C12.6699 26.7089 12.7489 26.8996 12.8896 27.0403C13.0302 27.1809 13.221 27.2599 13.4199 27.2599C13.7791 27.259 14.1305 27.3646 14.4296 27.5634C14.7287 27.7622 14.9621 28.0453 15.1003 28.3769C15.2384 28.7085 15.2751 29.0736 15.2056 29.426C15.1361 29.7784 14.9637 30.1022 14.71 30.3566C14.4564 30.6109 14.133 30.7843 13.7808 30.8547C13.4286 30.9251 13.0634 30.8895 12.7315 30.7523C12.3995 30.615 12.1158 30.3824 11.9161 30.0838C11.7165 29.7852 11.6099 29.4341 11.6099 29.0749C11.6099 28.876 11.5309 28.6853 11.3902 28.5446C11.2496 28.404 11.0588 28.3249 10.8599 28.3249C10.661 28.3249 10.4702 28.404 10.3296 28.5446C10.1889 28.6853 10.1099 28.876 10.1099 29.0749C10.1091 29.6986 10.2843 30.3098 10.6153 30.8383C10.9462 31.3669 11.4196 31.7914 11.981 32.063C12.5423 32.3346 13.1689 32.4424 13.7888 32.3739C14.4087 32.3055 14.9967 32.0636 15.4852 31.676C15.9738 31.2884 16.3431 30.7708 16.5507 30.1828C16.7584 29.5947 16.7959 28.96 16.6591 28.3516C16.5222 27.7431 16.2166 27.1857 15.7771 26.7431C15.3377 26.3006 14.7823 25.991 14.1749 25.8499V22.7299H15.3449C15.4765 22.7319 15.6063 22.6992 15.7213 22.6352C15.8362 22.5711 15.9323 22.4779 15.9999 22.3649L17.9999 18.9999C18.015 18.9725 18.0284 18.9441 18.0399 18.9149H32.2449V43.2499H4.37988C4.18097 43.2499 3.9902 43.329 3.84955 43.4696C3.7089 43.6103 3.62988 43.801 3.62988 43.9999C3.62988 44.1989 3.7089 44.3896 3.84955 44.5303C3.9902 44.6709 4.18097 44.7499 4.37988 44.7499H45.3799C45.5788 44.7499 45.7696 44.6709 45.9102 44.5303C46.0509 44.3896 46.1299 44.1989 46.1299 43.9999C46.1299 43.801 46.0509 43.6103 45.9102 43.4696C45.7696 43.329 45.5788 43.2499 45.3799 43.2499ZM39.4999 13.1899H43.6499C43.7162 13.1899 43.7798 13.2163 43.8267 13.2632C43.8735 13.31 43.8999 13.3736 43.8999 13.4399V17.1899C43.8999 17.2562 43.8735 17.3198 43.8267 17.3667C43.7798 17.4136 43.7162 17.4399 43.6499 17.4399H39.4999V13.1899ZM7.59488 17.4399H5.92488C5.87604 17.3659 5.85157 17.2785 5.85488 17.1899V13.4399C5.85157 13.3513 5.87604 13.2639 5.92488 13.1899H11.9999L7.59488 17.4399ZM14.9249 21.2349H11.9249L10.5549 18.9399H16.2949L14.9249 21.2349ZM9.75988 17.4399L13.5999 13.7549L17.4399 17.4399H9.75988ZM15.1749 13.1899H23.1749L19.1749 17.0199L15.1749 13.1899ZM20.8899 17.4399L24.7299 13.7549L28.5699 17.4399H20.8899ZM32.2449 17.4399H30.7449L26.3199 13.1899H32.2449V17.4399ZM33.7449 10.4399L37.6399 14.3349L33.7449 18.2299V10.4399ZM33.7449 21.5749L37.6349 25.4999L33.7399 29.3949L33.7449 21.5749ZM33.7449 32.5149L37.6399 36.4099L33.7449 40.3049V32.5149ZM37.9999 43.2499H33.7499V42.4349L37.9999 38.1849V43.2499ZM37.9999 34.6599L34.2949 30.9549L37.9999 27.2499V34.6599ZM37.9999 23.7249L34.1949 19.9199L37.9999 16.1149V23.7249ZM37.9999 12.5899L33.7649 8.35494C33.7823 8.30662 33.8143 8.26486 33.8563 8.23534C33.8984 8.20581 33.9485 8.18996 33.9999 8.18994H37.7499C37.8162 8.18994 37.8798 8.21628 37.9267 8.26316C37.9735 8.31005 37.9999 8.37364 37.9999 8.43994V12.5899Z" fill="#F05A23"/>
</svg>
